<?xml version="1.0" standalone="no"?>
<!DOCTYPE svg PUBLIC "-//W3C//DTD SVG 20010904//EN"
 "http://www.w3.org/TR/2001/REC-SVG-20010904/DTD/svg10.dtd">
<svg version="1.0" xmlns="http://www.w3.org/2000/svg"
 width="577.000000pt" height="577.000000pt" viewBox="0 0 577.000000 577.000000"
 preserveAspectRatio="xMidYMid meet">
<metadata>
Created by potrace 1.14, written by Peter Selinger 2001-2017
</metadata>
<g transform="translate(0.000000,577.000000) scale(0.100000,-0.100000)"
fill="#000000" stroke="none">
<path d="M1607 4724 c-1 -1 -27 -4 -57 -7 -30 -3 -66 -8 -79 -11 -36 -8 -181
-78 -181 -88 0 -4 -4 -8 -10 -8 -29 0 -180 -186 -180 -224 0 -9 -5 -16 -10
-16 -6 0 -10 -6 -9 -12 1 -7 -3 -26 -10 -43 -7 -16 -15 -41 -17 -55 -2 -14 -4
-632 -4 -1373 0 -966 3 -1362 11 -1395 11 -46 66 -172 78 -182 4 -3 18 -21 31
-40 56 -80 201 -182 275 -193 11 -1 26 -6 33 -11 7 -4 56 -10 109 -12 52 -2
100 -7 104 -10 5 -3 9 -2 9 3 0 9 112 8 135 -1 8 -3 15 -2 15 2 0 4 27 7 60 7
33 0 60 -4 60 -8 0 -5 5 -5 10 -2 15 9 143 10 157 2 6 -4 14 -3 18 3 4 7 12 7
26 0 10 -6 19 -7 19 -3 0 10 62 9 78 -1 6 -3 13 -3 16 2 4 7 80 8 111 2 6 -1
12 -1 15 0 17 7 227 4 238 -3 6 -5 12 -6 12 -1 0 10 130 11 146 1 6 -3 14 -4
17 0 9 8 177 10 177 1 0 -4 13 -3 30 2 18 5 32 5 36 -1 3 -5 11 -6 17 -2 15 9
88 10 108 1 9 -4 19 -4 23 -1 9 10 169 10 189 1 9 -5 17 -5 17 -1 0 7 137 9
165 3 6 -1 15 -2 20 0 27 5 144 2 154 -4 6 -4 11 -4 11 1 0 9 104 8 119 -2 6
-3 11 -2 11 2 0 5 17 7 38 6 61 -5 144 -4 149 1 3 3 16 1 29 -4 13 -5 24 -6
24 -2 0 4 26 8 58 9 51 1 189 38 202 53 3 3 26 18 52 33 44 25 111 87 151 139
18 22 79 143 83 163 1 6 7 30 12 54 6 25 9 49 6 53 -3 4 -1 8 4 8 5 0 6 20 2
45 -4 25 -4 45 -1 45 3 0 6 56 6 125 0 69 -4 125 -8 125 -5 0 -5 5 -1 11 10
16 11 58 2 92 -3 15 -3 27 2 27 4 0 4 16 0 35 -4 19 -5 35 -1 35 7 0 7 128 -1
136 -4 3 -2 19 2 35 5 17 5 31 -1 35 -6 4 -6 11 2 20 8 10 8 14 0 14 -6 0 -8
8 -3 23 9 28 8 99 -2 115 -4 6 -3 12 1 12 9 0 9 57 0 66 -3 3 -2 18 2 32 4 15
4 39 0 55 -4 15 -4 27 -1 27 8 0 6 94 -2 115 -3 8 -2 15 2 15 8 0 7 138 -2
147 -3 3 -1 12 5 20 8 9 8 13 0 13 -6 0 -8 8 -3 23 9 28 8 99 -2 115 -4 6 -3
12 1 12 9 0 9 57 0 66 -3 3 -2 18 2 32 4 15 4 39 0 55 -4 15 -4 27 -1 27 9 0
6 95 -3 109 -3 6 -3 11 2 11 10 0 9 112 -1 129 -4 6 -4 11 1 11 10 0 10 406 0
416 -3 4 -3 14 2 23 9 19 8 32 -2 48 -4 6 -4 14 1 17 7 4 8 141 2 141 -1 0 -3
12 -4 26 -5 50 -30 124 -58 172 -15 26 -28 50 -28 52 0 7 -31 44 -72 88 -21
21 -38 35 -38 31 0 -5 -7 2 -16 14 -8 12 -22 22 -30 22 -8 0 -14 4 -14 9 0 12
-132 70 -188 82 -31 6 -519 11 -1356 12 -719 1 -1308 1 -1309 1z"/>
</g>
</svg>
